<?xml version="1.0" encoding="UTF-8"?>
<svg width="512px" height="512px" viewBox="0 0 512 512" version="1.1" xmlns="http://www.w3.org/2000/svg" xmlns:xlink="http://www.w3.org/1999/xlink">
    <title>icon_</title>
    <g id="Page-1" stroke="none" stroke-width="1" fill="none" fill-rule="evenodd">
        <g id="icon_" fill-rule="nonzero">
            <polygon id="Path" fill="#C12127" points="0 512 0 0 512 0 512 512"></polygon>
            <path d="M416,451 L352,451 L352,195 L256,195 L256,451 L96,451 L96,198.726652 C96,170.506176 105.690523,149.199717 121.001548,130.741832 L121.945946,129.615282 L121.851041,129.245628 L121.165492,126.691042 L120.995863,126.042731 L120.727582,124.986986 L120.446847,123.832964 L120.158328,122.582532 L119.963964,121.696271 L119.7696,120.768543 C119.737283,120.610497 119.705023,120.450746 119.67285,120.289302 L119.481081,119.30041 L119.292771,118.271434 C119.261751,118.096628 119.230933,117.920175 119.200346,117.742087 L119.01982,116.654021 L118.846213,115.527252 C118.676526,114.381316 118.519294,113.178156 118.380742,111.92026 L118.248649,110.644211 C117.099099,98.7815324 117.693694,82.3891793 124.828829,63.3835525 L125.04802,63.3309933 L125.44,63.2554085 L125.710576,63.2118799 L126.031245,63.1673837 L126.402283,63.1240624 C126.468336,63.1170591 126.536499,63.110194 126.606778,63.1035118 L127.05389,63.0659699 L127.552063,63.0349591 L128.101575,63.0126217 C128.58097,63 129.11413,62.9950775 129.701777,63.0087846 L130.433153,63.0336762 C139.272072,63.4267471 158.846847,67.5590311 191.135135,90.7401365 C211.315315,84.9808557 232.936937,82.1012152 254.558559,82.1012152 C276.18018,82.1012152 297.801802,84.9808557 317.981982,90.7401365 C353.657658,65.9032379 374.738739,63.7435076 383.04955,64.2159486 L383.687206,64.258979 C383.8907,64.2749409 384.085147,64.2923944 384.270583,64.3109594 L384.799889,64.3696091 L385.275331,64.4326473 L385.697117,64.4977934 L386.065454,64.5627667 L386.518198,64.6549138 L386.85185,64.7338433 L387.067111,64.7918579 L387.171171,64.8233727 C396.396396,86.9390112 396.174991,105.516147 394.064259,117.53526 L393.861074,118.642746 L393.648202,119.711254 C393.430948,120.760088 393.20124,121.749625 392.965305,122.677376 L392.727524,123.58444 C392.687625,123.732154 392.647611,123.878128 392.60751,124.022352 L392.366097,124.866594 C392.325766,125.003768 392.285405,125.139169 392.245045,125.272784 L392.003114,126.05296 L391.762566,126.789733 C391.722667,126.908881 391.682883,127.026197 391.643243,127.141671 L391.407366,127.812305 L391.176332,128.438154 C391.138306,128.5387 391.100541,128.637356 391.063063,128.734112 L390.841888,129.291749 L390.629016,129.803219 C390.594306,129.884586 390.56,129.964007 390.526126,130.041469 L390.328303,130.482653 L390.142241,130.876288 C390.112288,130.937901 390.082883,130.99751 390.054054,131.055102 C405.751351,148.160166 415.797622,170.909902 416,197.907252 L416,198.726652 L416,451 Z" id="Path" fill="#FFFFFF"></path>
        </g>
    </g>
</svg>