<svg width="512" height="512" viewBox="0 0 512 512" xmlns="http://www.w3.org/2000/svg"><g fill="none"><path fill="#C12127" d="M0 512L0 0 512 0 512 512z"/><path d="M416 451h-64V195h-96v256H96V198.727c0-28.22 9.69-49.527 25.002-67.985l.944-1.127-.095-.37-.686-2.554-.17-.648-.267-1.056-.281-1.154-.289-1.25-.194-.887-.194-.927a97.932 97.932 0 0 1-.097-.48l-.192-.989-.188-1.029a97.118 97.118 0 0 1-.093-.529l-.18-1.088-.174-1.127a97.488 97.488 0 0 1-.465-3.607l-.132-1.276c-1.15-11.862-.555-28.255 6.58-47.26l.219-.053.392-.076.27-.043.321-.045.371-.043.205-.02.447-.038.498-.031.55-.022c.479-.013 1.012-.018 1.6-.004l.731.025c8.84.393 28.414 4.525 60.702 27.706 20.18-5.76 41.802-8.639 63.424-8.639 21.621 0 43.243 2.88 63.423 8.64 35.676-24.838 56.757-26.997 65.068-26.525l.637.043c.204.016.398.033.584.052l.529.059.475.063.422.065.368.065.453.092.334.079.215.058.104.031c9.225 22.116 9.004 40.693 6.893 52.712l-.203 1.108-.213 1.068a68.017 68.017 0 0 1-.683 2.966l-.237.907-.12.438-.242.845c-.04.137-.08.272-.121.406l-.242.78-.24.737-.12.352-.236.67-.23.626-.114.296-.221.558-.213.511-.103.238-.198.442-.186.393-.088.18c15.697 17.104 25.744 39.854 25.946 66.851V451z" fill="#FFF"/></g></svg>
