<?xml version="1.0" encoding="UTF-8" standalone="no"?>
<!-- Created with Inkscape (http://www.inkscape.org/) -->

<svg
   xmlns:dc="http://purl.org/dc/elements/1.1/"
   xmlns:cc="http://creativecommons.org/ns#"
   xmlns:rdf="http://www.w3.org/1999/02/22-rdf-syntax-ns#"
   xmlns:svg="http://www.w3.org/2000/svg"
   xmlns="http://www.w3.org/2000/svg"
   xmlns:sodipodi="http://sodipodi.sourceforge.net/DTD/sodipodi-0.dtd"
   xmlns:inkscape="http://www.inkscape.org/namespaces/inkscape"
   width="233"
   height="91"
   id="svg2"
   version="1.1"
   inkscape:version="0.48.1 r9760"
   sodipodi:docname="npm.svg">
  <defs
     id="defs4" />
  <sodipodi:namedview
     id="base"
     pagecolor="#ffffff"
     bordercolor="#666666"
     borderopacity="1.0"
     inkscape:pageopacity="0.0"
     inkscape:pageshadow="2"
     inkscape:zoom="1"
     inkscape:cx="128.62279"
     inkscape:cy="127.36086"
     inkscape:document-units="px"
     inkscape:current-layer="layer1"
     showgrid="false"
     fit-margin-top="0"
     fit-margin-left="0"
     fit-margin-right="0"
     fit-margin-bottom="0"
     inkscape:window-width="1440"
     inkscape:window-height="827"
     inkscape:window-x="0"
     inkscape:window-y="25"
     inkscape:window-maximized="1" />
  <metadata
     id="metadata7">
    <rdf:RDF>
      <cc:Work
         rdf:about="">
        <dc:format>image/svg+xml</dc:format>
        <dc:type
           rdf:resource="http://purl.org/dc/dcmitype/StillImage" />
        <dc:title></dc:title>
      </cc:Work>
    </rdf:RDF>
  </metadata>
  <g
     inkscape:label="Camada 1"
     inkscape:groupmode="layer"
     id="layer1"
     transform="translate(-109.57142,-485.2193)">
    <path
       style="fill:#cb3837;fill-opacity:1"
       d="m 174.4429,576.2193 0,-13.01931 -64.87148,0 1.9e-4,-77.98069 233.35644,0 -1.9e-4,77.98069 -116.67804,0 0,13.01931 z"
       id="path4951" />
    <path
       style="fill:#ffffff;fill-opacity:1"
       d="m 213.63597,563.19999 0,-13.1094 25.67822,0 0,-51.76189 -51.71684,0 0,64.87129 z"
       id="path4949" />
    <path
       style="fill:#cb3837;fill-opacity:1"
       d="m 213.63597,511.34801 12.61385,0 0,25.67822 -12.61385,0 z"
       id="path4947" />
    <path
       style="fill:#ffffff;fill-opacity:1"
       d="m 148.31419,550.09059 0,-38.74258 13.06435,0 0,38.74258 13.06436,0 0,-51.76189 -51.71226,0 0,51.76189 z"
       id="path4945" />
    <path
       style="fill:#ffffff;fill-opacity:1"
       d="m 278.05676,550.09059 0,-38.74258 13.06435,0 0,38.74258 13.06436,0 0,-38.74258 13.06435,0 0,38.74258 13.06437,0 0,-51.76189 -77.93404,0 0,51.76189 z"
       id="path2998" />
  </g>
</svg>
